<?xml version="1.0" encoding="UTF-8" standalone="no"?>
<!-- Created with Inkscape (http://www.inkscape.org/) -->

<svg
   xmlns:dc="http://purl.org/dc/elements/1.1/"
   xmlns:cc="http://creativecommons.org/ns#"
   xmlns:rdf="http://www.w3.org/1999/02/22-rdf-syntax-ns#"
   xmlns:svg="http://www.w3.org/2000/svg"
   xmlns="http://www.w3.org/2000/svg"
   xmlns:sodipodi="http://sodipodi.sourceforge.net/DTD/sodipodi-0.dtd"
   xmlns:inkscape="http://www.inkscape.org/namespaces/inkscape"
   width="50pt"
   height="50pt"
   viewBox="0 0 17.638889 17.638889"
   version="1.1"
   id="svg8"
   inkscape:version="0.92.3 (2405546, 2018-03-11)"
   sodipodi:docname="box.svg">
  <defs
     id="defs2" />
  <sodipodi:namedview
     id="base"
     pagecolor="#ffffff"
     bordercolor="#666666"
     borderopacity="1.0"
     inkscape:pageopacity="0.0"
     inkscape:pageshadow="2"
     inkscape:zoom="11.2"
     inkscape:cx="33.36099"
     inkscape:cy="14.384375"
     inkscape:document-units="mm"
     inkscape:current-layer="layer1"
     showgrid="false"
     units="pt"
     inkscape:window-width="1920"
     inkscape:window-height="1017"
     inkscape:window-x="1912"
     inkscape:window-y="-8"
     inkscape:window-maximized="1" />
  <metadata
     id="metadata5">
    <rdf:RDF>
      <cc:Work
         rdf:about="">
        <dc:format>image/svg+xml</dc:format>
        <dc:type
           rdf:resource="http://purl.org/dc/dcmitype/StillImage" />
        <dc:title></dc:title>
      </cc:Work>
    </rdf:RDF>
  </metadata>
  <g
     inkscape:label="Layer 1"
     inkscape:groupmode="layer"
     id="layer1"
     transform="translate(0,-279.36112)">
    <g
       id="g21"
       transform="translate(0,8.8888889e-6)">
      <path
         style="fill:#a1d0f7;stroke-width:0.06719589"
         d="m 0,291.29922 v -5.70078 H 8.8194445 17.638889 V 291.29922 297 H 8.8194445 0 Z m 11.175785,2.78332 v -0.63715 H 9.6946565 8.2135285 v -0.87188 -0.87188 h 1.34648 1.3464805 v -0.67068 -0.67068 h -1.3464805 -1.34648 v -0.57008 -0.57008 h 1.481128 1.4811285 v -0.67068 -0.67068 H 8.8194445 6.4631044 v 3.42047 3.42047 H 8.8194445 11.175785 Z M 0,285.23489 c 0,-0.0155 0.6172244,-1.33592 1.3716098,-2.93423 l 1.3716097,-2.90602 2.9707885,-0.0175 2.9707885,-0.0175 -1.771e-4,1.59357 c -9.69e-5,0.87646 -0.020054,2.20472 -0.044348,2.95169 l -0.044171,1.35813 h -4.29805 C 1.9341227,285.2631 0,285.2504 0,285.23489 Z m 8.9985189,-1.02812 c -0.024188,-0.58097 -0.044079,-1.90923 -0.044202,-2.95169 l -2.242e-4,-1.89537 2.9769973,0.0175 2.976998,0.0175 1.3654,2.91102 c 0.75097,1.60106 1.365401,2.92146 1.365401,2.93423 0,0.0128 -1.934188,0.0232 -4.298196,0.0232 H 9.042497 Z"
         id="path35"
         inkscape:connector-curvature="0" />
      <path
         style="fill:#5caff0;stroke-width:0.06719589"
         d="m 0,291.29922 v -5.70078 H 8.8194445 17.638889 V 291.29922 297 H 8.8194445 0 Z m 11.175785,2.78332 v -0.63715 H 9.6946565 8.2135285 v -0.87188 -0.87188 h 1.34648 1.3464805 v -0.67068 -0.67068 h -1.3464805 -1.34648 v -0.57008 -0.57008 h 1.481128 1.4811285 v -0.67068 -0.67068 H 8.8194445 6.4631044 v 3.42047 3.42047 H 8.8194445 11.175785 Z M 0.2267852,284.77685 c 0.12286215,-0.26743 0.74680338,-1.59538 1.3865361,-2.95099 l 1.1631504,-2.46475 h 2.9649889 2.9649893 l -0.044358,1.86114 c -0.024397,1.02362 -0.044416,2.35157 -0.044488,2.95099 l -1.306e-4,1.08986 H 4.310436 0.00339947 Z m 8.7944852,-0.80481 c -6.73e-5,-0.71009 -0.020087,-2.03835 -0.044461,-2.9517 l -0.044315,-1.66064 2.9806536,0.0175 2.980653,0.0175 1.206629,2.58212 c 0.663647,1.42017 1.279616,2.74057 1.36882,2.93423 l 0.16219,0.35211 H 13.326428 9.0214165 l -1.346e-4,-1.29106 z"
         id="path33"
         inkscape:connector-curvature="0" />
      <path
         style="fill:#329df2;stroke-width:0.06719589"
         d="m 0,291.29922 v -5.70078 H 8.8194445 17.638889 V 291.29922 297 H 8.8194445 0 Z m 11.175785,2.78332 v -0.63715 H 9.6946565 8.2135285 v -0.87188 -0.87188 h 1.34648 1.3464805 v -0.67068 -0.67068 h -1.3464805 -1.34648 v -0.57008 -0.57008 h 1.481128 1.4811285 v -0.67068 -0.67068 H 8.8194445 6.4631044 v 3.42047 3.42047 h 2.3563401 2.3563405 z m -10.74847125,-9.7081 c 0.23196535,-0.48875 0.85708225,-1.8167 1.38914875,-2.95099 l 0.9673935,-2.06234 h 2.9610671 2.961067 l -0.044053,1.15692 c -0.024229,0.63631 -0.044146,1.96426 -0.044259,2.951 l -2.06e-4,1.79407 H 4.3115155 0.00555857 Z m 8.59410275,-1.34769 c 0,-1.22999 -0.019771,-2.55825 -0.043936,-2.9517 l -0.043936,-0.71535 2.9735775,0.0175 2.973577,0.0175 1.345434,2.87944 c 0.739988,1.58368 1.345433,2.90409 1.345433,2.93422 0,0.0301 -1.923783,0.0548 -4.275074,0.0548 H 9.0214165 Z"
         id="path31"
         inkscape:connector-curvature="0" />
      <path
         style="fill:#2095f1;stroke-width:0.06719589"
         d="m 0,291.33275 v -5.66725 h 5.3748479 c 2.9561663,0 6.9249161,-0.02 8.8194451,-0.0445 l 3.444596,-0.0445 V 291.28826 297 H 8.8194445 0 Z m 11.175785,2.74979 v -0.63715 H 9.6946565 8.2135285 v -0.87188 -0.87188 h 1.34648 1.3464805 v -0.67068 -0.67068 h -1.3464805 -1.34648 v -0.57008 -0.57008 h 1.481128 1.4811285 v -0.67068 -0.67068 H 8.8194445 6.4631044 v 3.42047 3.42047 H 8.8194445 11.175785 Z M 9.0216676,282.50492 c -1.38e-4,-1.49855 -0.019186,-2.81895 -0.042329,-2.93422 l -0.042077,-0.20959 H 11.90073 c 2.307128,0 2.971262,0.0186 2.998654,0.0838 0.01935,0.0461 0.612767,1.31823 1.318701,2.82695 0.705934,1.50871 1.302308,2.8021 1.325274,2.87419 0.04119,0.12927 -0.01678,0.13074 -4.239842,0.10727 l -4.2815989,-0.0238 z m -8.94312293,2.63419 c 0.01234274,-0.0313 0.62733149,-1.34416 1.36664173,-2.91746 l 1.3442004,-2.86054 H 5.7255974 8.661808 l -0.026774,2.83362 c -0.014726,1.5585 -0.038898,2.87135 -0.053716,2.91746 -0.021179,0.0659 -0.9360225,0.0838 -4.2760787,0.0838 -2.3370245,0 -4.23903686,-0.0256 -4.22669413,-0.0569 z"
         id="path29"
         inkscape:connector-curvature="0" />
      <path
         style="fill:#298dde;stroke-width:0.06719589"
         d="M 0.02688946,296.9497 C 0.0540214,296.922 1.5056952,295.6599 3.2528313,294.14496 l 3.1766111,-2.75443 0.017987,1.66458 0.017987,1.66458 h 2.3551841 2.3551845 v -0.63715 -0.63715 H 9.6946565 8.2135285 v -0.87188 -0.87188 h 1.34648 1.3464805 v -0.67068 -0.67068 h -1.3464805 -1.34648 v -0.26013 c 0,-0.23187 0.039566,-0.2938 0.3641885,-0.57008 l 0.3641885,-0.30995 h 1.1169395 1.11694 v -0.66718 -0.66717 l -0.334113,-0.0203 -0.334112,-0.0203 0.358155,-0.3018 c 0.196985,-0.166 0.786737,-0.67152 1.310561,-1.12339 l 0.952406,-0.82158 h 2.255103 2.255104 V 291.29922 297 H 8.8082236 C 3.951358,297 -2.4247548e-4,296.9774 0.02688946,296.9497 Z M 13.357839,285.14573 c 0.02022,-0.0646 0.340876,-1.35478 0.712573,-2.86716 0.371698,-1.51239 0.692489,-2.79506 0.712869,-2.85039 0.03013,-0.0818 0.0512,-0.0756 0.112757,0.0335 0.117818,0.20876 2.60062,5.53779 2.645082,5.67735 0.03788,0.11889 -0.04891,0.12404 -2.090261,0.12404 -1.997483,0 -2.127497,-0.007 -2.09302,-0.11737 z"
         id="path27"
         inkscape:connector-curvature="0" />
      <path
         style="fill:#1e8de7;stroke-width:0.06719589"
         d="m 0.30295802,296.70189 c 0.14811281,-0.12563 1.58716338,-1.37201 3.19789018,-2.76973 l 2.9285942,-2.54132 0.017987,1.66442 0.017987,1.66443 h 2.3551841 2.3551845 v -0.63715 -0.63715 H 9.6946565 8.2135285 v -0.87188 -0.87188 h 1.34648 1.3464805 v -0.67068 -0.67068 h -1.3464805 -1.34648 v -0.26013 c 0,-0.23187 0.039566,-0.2938 0.3641885,-0.57008 l 0.3641885,-0.30995 h 1.1169395 1.11694 v -0.66718 -0.66717 l -0.327833,-0.0203 -0.327831,-0.0203 1.253536,-1.08731 1.253538,-1.08732 2.305847,-0.003 2.305847,-0.003 v 5.63372 5.63371 l -8.8026135,-10e-4 -8.8026135,-0.001 0.26929602,-0.22842 z M 14.056159,282.32887 c 0.387525,-1.57694 0.72582,-2.89056 0.751768,-2.91917 0.02595,-0.0286 0.647664,1.23898 1.381593,2.81686 0.73393,1.57788 1.346921,2.8915 1.362205,2.91917 0.01528,0.0277 -0.923501,0.0503 -2.086185,0.0503 h -2.113971 z"
         id="path25"
         inkscape:connector-curvature="0" />
      <path
         style="fill:#1d87dd;stroke-width:0.06719589"
         d="m 0.23750413,296.80334 c 0.0730278,-0.0713 1.49608897,-1.30912 3.16235807,-2.75077 l 3.0295802,-2.62118 0.018007,1.64415 0.018007,1.64415 h 2.3551641 2.3551645 v -0.63715 -0.63715 H 9.6946565 8.2135285 v -0.87188 -0.87188 h 1.34648 1.3464805 v -0.67068 -0.67068 h -1.3464805 -1.34648 l 0.0039,-0.25151 c 0.00345,-0.22203 0.048808,-0.28874 0.387113,-0.56931 l 0.3832082,-0.3178 1.0940153,-7.7e-4 1.094015,-7.7e-4 v -0.66701 -0.667 l -0.306537,-0.0204 -0.306537,-0.0204 1.261478,-1.08985 1.261477,-1.08986 h 2.276612 2.276611 v 5.63372 5.63371 H 8.8718078 c -8.66554823,0 -8.76554384,-0.002 -8.63430367,-0.12959 z M 13.421671,285.04512 c 0.02194,-0.083 0.348248,-1.39888 0.72512,-2.9242 0.447466,-1.81103 0.70478,-2.73848 0.74159,-2.67296 0.05925,0.10547 2.248987,4.78934 2.522645,5.39596 l 0.158841,0.35211 H 15.47582 13.381773 Z"
         id="path23"
         inkscape:connector-curvature="0" />
    </g>
  </g>
</svg>
